PathFileType	4	(X/Y/Z)	Patient4_TMGait_0pt5_02_right_19.trc.trc
DataRate	CameraRate	NumFrames	NumMarkers	Units	OrigDataRate	OrigDataStartFrame	OrigNumFrames
81.395348837209	81.395348837209	4	33	mm	81.395348837209	1	       141
Frame#	Time	Sacral			L.Shoulder			Chest			R.Shoulder			Neck			R.ASIS			L.ASIS			R.Thigh.Superior			R.Thigh.Lateral			R.Thigh.Inferior			R.Patella			L.Thigh.Superior			L.Thigh.Lateral			L.Thigh.Inferior			L.Patella			L.Shank.Superior			L.Shank.Lateral			L.Shank.Inferior			R.Shank.Superior			R.Shank.Lateral			R.Shank.Inferior			R.Heel			R.Midfoot.Superior			R.Midfoot.Lateral			R.Toe			L.Heel			L.Midfoot.Lateral			L.Midfoot.Superior			L.Toe			L.Elbow			L.Wrist			R.Elbow			R.Wrist			
		X1	Y1	Z1	X2	Y2	Z2	X3	Y3	Z3	X4	Y4	Z4	X5	Y5	Z5	X6	Y6	Z6	X7	Y7	Z7	X8	Y8	Z8	X9	Y9	Z9	X10	Y10	Z10	X11	Y11	Z11	X12	Y12	Z12	X13	Y13	Z13	X14	Y14	Z14	X15	Y15	Z15	X16	Y16	Z16	X17	Y17	Z17	X18	Y18	Z18	X19	Y19	Z19	X20	Y20	Z20	X21	Y21	Z21	X22	Y22	Z22	X23	Y23	Z23	X24	Y24	Z24	X25	Y25	Z25	X26	Y26	Z26	X27	Y27	Z27	X28	Y28	Z28	X29	Y29	Z29	X30	Y30	Z30	X31	Y31	Z31	X32	Y32	Z32	X33	Y33	Z33	

1	24.740000000000	573.568779164099	1013.785569438895	470.739836773077	779.359821369487	1441.464720032984	301.223066049167	878.158817974417	1358.788359898930	458.815464554606	797.918610696150	1430.650287583372	636.335817359126	783.704480256182	1493.207147291602	454.192777750879	801.166254611319	941.265968895765	577.590628416898	780.534696623760	962.050526726178	306.346366103128	876.170970525210	768.925922510061	546.455555633005	835.068390904187	650.408667277718	622.903092944736	921.713062977817	607.168043119264	541.619386929586	936.766086132817	492.624505401387	563.665402408202	824.042967255423	748.189232940119	333.775692579712	729.932866182935	634.377476154689	282.561241274174	813.463014725401	554.901054888463	344.587315576673	812.430877763537	483.728210608030	356.904175394123	781.046839578407	412.608541118005	351.341287450687	685.752367647994	303.130184968731	302.234865841284	726.971571650642	190.943112018571	376.189212913320	855.839131902653	422.555257686995	575.771773595546	733.212875089508	393.030575849149	639.351750478365	711.187286579615	283.412161369347	595.652939139493	510.246905141206	246.843102000192	568.941446283528	664.027728759634	158.684157851479	613.062875373513	555.094088856431	178.342504407149	644.751962431075	706.570947492179	37.042331875891	645.119185877986	588.689324261821	39.011833083336	418.036444098197	662.915857541935	35.528067178037	337.820533797707	747.152684775079	95.392090183445	364.276974855137	875.125105949374	39.679810053986	335.877426065379	709.297217019408	1115.579286138388	139.015239417776	900.180812854124	941.881864487226	158.299432898020	678.610482078655	1104.150006883478	741.169603661910	668.603752777827	845.964978387745	772.141455816061	
2	24.752285714286	571.894814402646	1014.655488820568	469.148636936210	780.351062655862	1441.675618457557	300.094601846757	877.419641592890	1359.050320713873	458.613890398531	795.938327232429	1431.520055393437	635.326883573520	783.320480285846	1493.633624797858	453.053914648708	798.664120296594	942.498989543973	577.743404201119	780.332537529037	962.392100857864	306.093396114690	875.596626601094	772.785790421450	545.855068588619	837.186068982156	653.614592191006	622.255737428031	924.118555131302	611.930370549252	540.562422494291	941.683878732603	498.089067098252	562.675514275661	821.354996952465	747.385761198600	334.110446905969	726.286242957367	634.487803138663	282.521048546255	808.694420174639	554.322293089162	344.995980769886	806.842441169122	483.226816721544	357.420899208578	775.404069080282	412.486438355052	351.568722933933	679.981834605243	303.246455230658	302.244451227023	720.764575191995	190.948403753912	376.233644995173	863.215164157443	425.820477030597	574.441953683097	741.816523434615	391.451531669686	637.464251408922	724.128439784882	281.374801880490	593.321291874142	524.802443658976	236.402307065596	566.009003833434	682.079375231867	155.688162012685	610.379054620636	572.609695886246	170.251269755267	641.940424739210	730.014323159882	36.276460306652	642.542674038470	582.138485935272	39.126106964724	417.983178444911	656.404536965698	35.561122607111	337.815302433931	740.665851759603	95.441013870819	364.228574067523	868.596130863193	39.643250988743	335.866018376426	713.262225358447	1115.590024859620	137.430119516009	906.535503307151	945.427257134626	159.695362265559	673.612013533907	1106.208556572975	740.053779478913	661.185347087008	848.420888121764	772.261315075913	
3	24.764571428571	570.213689811983	1015.519006611176	467.566056465132	781.356875526433	1441.863030634608	298.995051493224	876.695291358124	1359.285689479672	458.443667388322	793.974003493637	1432.367193675697	634.346181470904	782.940242075171	1494.043193145942	451.942847373946	796.165773884892	943.688710339001	577.916170840434	780.159547319024	962.715420096902	305.871260485474	874.978309573412	776.550497575334	545.306253133578	839.195152942125	656.735491898447	621.657825913195	926.363222412416	616.550169851646	539.544001565180	946.374367546670	503.443267136640	561.756571638941	818.675784602527	746.590134830631	334.499773717007	722.693431380790	634.593529459050	282.482562189226	803.987490099936	553.751881481725	345.405853258370	801.321005825331	482.729542916350	357.926420104186	769.830072959783	412.359319962905	351.791708109000	674.275981954525	303.361064119746	302.251357171029	714.622226842531	190.953417562820	376.274232058866	870.420483255635	428.968488395014	573.177378443131	750.329190591053	389.659791363443	635.656082720532	737.058652053649	279.156686926558	591.069793351863	539.461936842162	225.642421380379	563.190604920642	700.219567720311	152.523603274436	607.756712573842	590.270143706838	161.910153639688	639.234883178821	753.629040975903	35.453384283025	640.012595116250	575.657774133039	39.237865565572	417.932082826084	649.959319668702	35.594357610254	337.810500913708	734.244872014780	95.486373332581	364.183071109120	862.134786441902	39.606002611598	335.855502873529	717.168531722299	1115.572643682290	135.909875651954	912.778931183092	948.902754887209	161.144241374180	668.752204079689	1108.190190512361	738.951888269512	654.033160243056	850.789216706384	772.376661674410	
4	24.776857142857	568.523227623416	1016.362528555924	466.006866710489	782.388141474353	1441.996832557024	297.960131291390	875.999331599787	1359.461153522374	458.337269779706	792.045218514277	1433.160457367517	633.425309667821	782.571671416975	1494.411348008000	450.892809077700	793.677801114359	944.785496911589	578.134757823532	780.026323283627	962.990447135071	305.713668513339	874.232819904952	780.070911306123	544.874486606719	840.906129958158	659.647878888109	621.174471926775	928.210681930860	620.830727486620	538.624521779738	950.539119764685	508.553104895292	560.972901256272	816.006664197727	745.800946035411	334.986713745295	719.184818971610	634.685995144845	282.448770742619	799.374985140014	553.189376229539	345.817254060322	795.903618185425	482.235827146411	358.409343592552	764.362504274676	412.218524075728	352.005563220856	668.663115455914	303.469141939286	302.255209697530	708.570883518970	190.953315283378	376.310121108190	877.253175696513	431.887805404438	572.046278221751	758.717166826758	387.452241401230	634.034562585091	750.045719207310	276.630110920453	588.989386428354	554.526430644587	214.273098259034	560.629115792850	718.666371884008	149.118285865054	605.262460793157	608.412761220051	153.137168583141	636.752068458439	777.710817063249	34.681806746259	637.556384586556	569.274893521218	39.344389371859	417.884978665542	643.603911181070	35.627591726006	337.806753994381	727.913482704882	95.524741763608	364.143790174822	855.766133833171	39.568170288833	335.846718785211	720.974029956084	1115.488652304176	134.527841865128	918.813659762255	952.228573926497	162.718047052351	664.175081196054	1110.002467589532	737.879475951356	647.437709124567	852.961636597431	772.471292984172	
